<svg width="218" height="231" viewBox="0 0 218 231" fill="none" xmlns="http://www.w3.org/2000/svg">
<ellipse cx="3.53351" cy="4.15872" rx="2.93243" ry="3.38235" fill="#2C2C2E"/>
<ellipse cx="3.53351" cy="24.4527" rx="2.93243" ry="3.38235" fill="#2C2C2E"/>
<ellipse cx="3.53351" cy="44.7471" rx="2.93243" ry="3.38235" fill="#2C2C2E"/>
<ellipse cx="3.53351" cy="65.041" rx="2.93243" ry="3.38236" fill="#2C2C2E"/>
<ellipse cx="3.53351" cy="85.335" rx="2.93243" ry="3.38235" fill="#2C2C2E"/>
<ellipse cx="3.53351" cy="105.629" rx="2.93243" ry="3.38235" fill="#2C2C2E"/>
<ellipse cx="3.53351" cy="125.923" rx="2.93243" ry="3.38236" fill="#2C2C2E"/>
<ellipse cx="3.53351" cy="146.217" rx="2.93243" ry="3.38236" fill="#2C2C2E"/>
<ellipse cx="3.53351" cy="166.511" rx="2.93243" ry="3.38235" fill="#2C2C2E"/>
<ellipse cx="3.53351" cy="186.806" rx="2.93243" ry="3.38236" fill="#2C2C2E"/>
<ellipse cx="3.53351" cy="207.101" rx="2.93243" ry="3.38237" fill="#2C2C2E"/>
<ellipse cx="3.53351" cy="227.394" rx="2.93243" ry="3.38235" fill="#2C2C2E"/>
<ellipse cx="21.128" cy="4.15872" rx="2.93243" ry="3.38235" fill="#2C2C2E"/>
<ellipse cx="21.128" cy="24.4527" rx="2.93243" ry="3.38235" fill="#2C2C2E"/>
<ellipse cx="21.128" cy="44.7471" rx="2.93243" ry="3.38235" fill="#2C2C2E"/>
<ellipse cx="21.128" cy="65.041" rx="2.93243" ry="3.38236" fill="#2C2C2E"/>
<ellipse cx="21.1282" cy="85.335" rx="2.93243" ry="3.38235" fill="#2C2C2E"/>
<ellipse cx="21.1282" cy="105.629" rx="2.93243" ry="3.38235" fill="#2C2C2E"/>
<ellipse cx="21.1282" cy="125.923" rx="2.93243" ry="3.38236" fill="#2C2C2E"/>
<ellipse cx="21.1282" cy="146.217" rx="2.93243" ry="3.38236" fill="#2C2C2E"/>
<ellipse cx="21.1282" cy="166.511" rx="2.93243" ry="3.38235" fill="#2C2C2E"/>
<ellipse cx="21.1282" cy="186.806" rx="2.93243" ry="3.38236" fill="#2C2C2E"/>
<ellipse cx="21.1282" cy="207.101" rx="2.93243" ry="3.38237" fill="#2C2C2E"/>
<ellipse cx="21.1282" cy="227.394" rx="2.93243" ry="3.38235" fill="#2C2C2E"/>
<ellipse cx="38.7227" cy="4.15872" rx="2.93243" ry="3.38235" fill="#2C2C2E"/>
<ellipse cx="38.7227" cy="24.4527" rx="2.93243" ry="3.38235" fill="#2C2C2E"/>
<ellipse cx="38.7227" cy="44.7471" rx="2.93243" ry="3.38235" fill="#2C2C2E"/>
<ellipse cx="38.7227" cy="65.041" rx="2.93243" ry="3.38236" fill="#2C2C2E"/>
<ellipse cx="38.7227" cy="85.335" rx="2.93243" ry="3.38235" fill="#2C2C2E"/>
<ellipse cx="38.7227" cy="105.629" rx="2.93243" ry="3.38235" fill="#2C2C2E"/>
<ellipse cx="38.7227" cy="125.923" rx="2.93243" ry="3.38236" fill="#2C2C2E"/>
<ellipse cx="38.7227" cy="146.217" rx="2.93243" ry="3.38236" fill="#2C2C2E"/>
<ellipse cx="38.7227" cy="166.511" rx="2.93243" ry="3.38235" fill="#2C2C2E"/>
<ellipse cx="38.7227" cy="186.806" rx="2.93243" ry="3.38236" fill="#2C2C2E"/>
<ellipse cx="38.7227" cy="207.101" rx="2.93243" ry="3.38237" fill="#2C2C2E"/>
<ellipse cx="38.7227" cy="227.394" rx="2.93243" ry="3.38235" fill="#2C2C2E"/>
<ellipse cx="56.3173" cy="4.15872" rx="2.93244" ry="3.38235" fill="#2C2C2E"/>
<ellipse cx="56.3172" cy="24.4527" rx="2.93244" ry="3.38235" fill="#2C2C2E"/>
<ellipse cx="56.3172" cy="44.7471" rx="2.93244" ry="3.38235" fill="#2C2C2E"/>
<ellipse cx="56.3173" cy="65.041" rx="2.93244" ry="3.38236" fill="#2C2C2E"/>
<ellipse cx="56.3172" cy="85.335" rx="2.93244" ry="3.38235" fill="#2C2C2E"/>
<ellipse cx="56.3172" cy="105.629" rx="2.93244" ry="3.38235" fill="#2C2C2E"/>
<ellipse cx="56.3172" cy="125.923" rx="2.93244" ry="3.38236" fill="#2C2C2E"/>
<ellipse cx="56.3172" cy="146.217" rx="2.93244" ry="3.38236" fill="#2C2C2E"/>
<ellipse cx="56.3172" cy="166.511" rx="2.93244" ry="3.38235" fill="#2C2C2E"/>
<ellipse cx="56.3172" cy="186.806" rx="2.93244" ry="3.38236" fill="#2C2C2E"/>
<ellipse cx="56.3172" cy="207.101" rx="2.93244" ry="3.38237" fill="#2C2C2E"/>
<ellipse cx="56.3172" cy="227.394" rx="2.93244" ry="3.38235" fill="#2C2C2E"/>
<ellipse cx="73.9119" cy="4.15872" rx="2.93243" ry="3.38235" fill="#2C2C2E"/>
<ellipse cx="73.9119" cy="24.4527" rx="2.93243" ry="3.38235" fill="#2C2C2E"/>
<ellipse cx="73.9119" cy="44.7471" rx="2.93243" ry="3.38235" fill="#2C2C2E"/>
<ellipse cx="73.9119" cy="65.041" rx="2.93243" ry="3.38236" fill="#2C2C2E"/>
<ellipse cx="73.9117" cy="85.335" rx="2.93243" ry="3.38235" fill="#2C2C2E"/>
<ellipse cx="73.9117" cy="105.629" rx="2.93243" ry="3.38235" fill="#2C2C2E"/>
<ellipse cx="73.9117" cy="125.923" rx="2.93243" ry="3.38236" fill="#2C2C2E"/>
<ellipse cx="73.9117" cy="146.217" rx="2.93243" ry="3.38236" fill="#2C2C2E"/>
<ellipse cx="73.9117" cy="166.511" rx="2.93243" ry="3.38235" fill="#2C2C2E"/>
<ellipse cx="73.9117" cy="186.806" rx="2.93243" ry="3.38236" fill="#2C2C2E"/>
<ellipse cx="73.9117" cy="207.101" rx="2.93243" ry="3.38237" fill="#2C2C2E"/>
<ellipse cx="73.9117" cy="227.394" rx="2.93243" ry="3.38235" fill="#2C2C2E"/>
<ellipse cx="91.5065" cy="4.15872" rx="2.93243" ry="3.38235" fill="#2C2C2E"/>
<ellipse cx="91.5064" cy="24.4527" rx="2.93243" ry="3.38235" fill="#2C2C2E"/>
<ellipse cx="91.5064" cy="44.7471" rx="2.93243" ry="3.38235" fill="#2C2C2E"/>
<ellipse cx="91.5065" cy="65.041" rx="2.93243" ry="3.38236" fill="#2C2C2E"/>
<ellipse cx="91.5064" cy="85.335" rx="2.93243" ry="3.38235" fill="#2C2C2E"/>
<ellipse cx="91.5064" cy="105.629" rx="2.93243" ry="3.38235" fill="#2C2C2E"/>
<ellipse cx="91.5064" cy="125.923" rx="2.93243" ry="3.38236" fill="#2C2C2E"/>
<ellipse cx="91.5064" cy="146.217" rx="2.93243" ry="3.38236" fill="#2C2C2E"/>
<ellipse cx="91.5064" cy="166.511" rx="2.93243" ry="3.38235" fill="#2C2C2E"/>
<ellipse cx="91.5064" cy="186.806" rx="2.93243" ry="3.38236" fill="#2C2C2E"/>
<ellipse cx="91.5064" cy="207.101" rx="2.93243" ry="3.38237" fill="#2C2C2E"/>
<ellipse cx="91.5064" cy="227.394" rx="2.93243" ry="3.38235" fill="#2C2C2E"/>
<ellipse cx="109.101" cy="4.15872" rx="2.93243" ry="3.38235" fill="#2C2C2E"/>
<ellipse cx="109.101" cy="24.4527" rx="2.93243" ry="3.38235" fill="#2C2C2E"/>
<ellipse cx="109.101" cy="44.7466" rx="2.93243" ry="3.38235" fill="#2C2C2E"/>
<ellipse cx="109.101" cy="65.041" rx="2.93243" ry="3.38235" fill="#2C2C2E"/>
<ellipse cx="109.101" cy="85.335" rx="2.93243" ry="3.38235" fill="#2C2C2E"/>
<ellipse cx="109.101" cy="105.629" rx="2.93243" ry="3.38235" fill="#2C2C2E"/>
<ellipse cx="109.101" cy="125.923" rx="2.93243" ry="3.38236" fill="#2C2C2E"/>
<ellipse cx="109.101" cy="146.217" rx="2.93243" ry="3.38236" fill="#2C2C2E"/>
<ellipse cx="109.101" cy="166.511" rx="2.93243" ry="3.38235" fill="#2C2C2E"/>
<ellipse cx="109.101" cy="186.806" rx="2.93243" ry="3.38236" fill="#2C2C2E"/>
<ellipse cx="109.101" cy="207.101" rx="2.93243" ry="3.38237" fill="#2C2C2E"/>
<ellipse cx="109.101" cy="227.394" rx="2.93243" ry="3.38235" fill="#2C2C2E"/>
<ellipse cx="126.696" cy="4.15872" rx="2.93243" ry="3.38235" fill="#2C2C2E"/>
<ellipse cx="144.29" cy="4.15872" rx="2.93243" ry="3.38235" fill="#2C2C2E"/>
<ellipse cx="161.885" cy="4.15872" rx="2.93243" ry="3.38235" fill="#2C2C2E"/>
<ellipse cx="179.479" cy="4.15872" rx="2.93243" ry="3.38235" fill="#2C2C2E"/>
<ellipse cx="197.074" cy="4.15872" rx="2.93245" ry="3.38235" fill="#2C2C2E"/>
<ellipse cx="214.669" cy="4.15872" rx="2.93243" ry="3.38235" fill="#2C2C2E"/>
<ellipse cx="126.696" cy="24.4527" rx="2.93243" ry="3.38235" fill="#2C2C2E"/>
<ellipse cx="144.29" cy="24.4527" rx="2.93243" ry="3.38235" fill="#2C2C2E"/>
<ellipse cx="161.885" cy="24.4527" rx="2.93243" ry="3.38235" fill="#2C2C2E"/>
<ellipse cx="179.479" cy="24.4527" rx="2.93243" ry="3.38235" fill="#2C2C2E"/>
<ellipse cx="197.074" cy="24.4527" rx="2.93245" ry="3.38235" fill="#2C2C2E"/>
<ellipse cx="214.669" cy="24.4527" rx="2.93243" ry="3.38235" fill="#2C2C2E"/>
<ellipse cx="126.696" cy="44.7471" rx="2.93243" ry="3.38235" fill="#2C2C2E"/>
<ellipse cx="144.29" cy="44.7471" rx="2.93243" ry="3.38235" fill="#2C2C2E"/>
<ellipse cx="161.885" cy="44.7471" rx="2.93243" ry="3.38235" fill="#2C2C2E"/>
<ellipse cx="179.479" cy="44.7471" rx="2.93243" ry="3.38235" fill="#2C2C2E"/>
<ellipse cx="197.074" cy="44.7471" rx="2.93245" ry="3.38235" fill="#2C2C2E"/>
<ellipse cx="214.669" cy="44.7471" rx="2.93243" ry="3.38235" fill="#2C2C2E"/>
<ellipse cx="126.696" cy="65.041" rx="2.93243" ry="3.38235" fill="#2C2C2E"/>
<ellipse cx="144.29" cy="65.041" rx="2.93243" ry="3.38236" fill="#2C2C2E"/>
<ellipse cx="161.885" cy="65.041" rx="2.93243" ry="3.38236" fill="#2C2C2E"/>
<ellipse cx="179.479" cy="65.041" rx="2.93243" ry="3.38235" fill="#2C2C2E"/>
<ellipse cx="197.074" cy="65.041" rx="2.93245" ry="3.38236" fill="#2C2C2E"/>
<ellipse cx="214.669" cy="65.041" rx="2.93243" ry="3.38236" fill="#2C2C2E"/>
<ellipse cx="126.696" cy="85.335" rx="2.93243" ry="3.38235" fill="#2C2C2E"/>
<ellipse cx="144.291" cy="85.335" rx="2.93243" ry="3.38235" fill="#2C2C2E"/>
<ellipse cx="161.885" cy="85.335" rx="2.93243" ry="3.38235" fill="#2C2C2E"/>
<ellipse cx="179.48" cy="85.335" rx="2.93245" ry="3.38235" fill="#2C2C2E"/>
<ellipse cx="197.074" cy="85.335" rx="2.93244" ry="3.38235" fill="#2C2C2E"/>
<ellipse cx="214.669" cy="85.335" rx="2.93243" ry="3.38235" fill="#2C2C2E"/>
<ellipse cx="126.696" cy="105.629" rx="2.93243" ry="3.38235" fill="#2C2C2E"/>
<ellipse cx="144.291" cy="105.629" rx="2.93243" ry="3.38235" fill="#2C2C2E"/>
<ellipse cx="161.885" cy="105.629" rx="2.93243" ry="3.38235" fill="#2C2C2E"/>
<ellipse cx="179.48" cy="105.629" rx="2.93245" ry="3.38235" fill="#2C2C2E"/>
<ellipse cx="197.074" cy="105.629" rx="2.93244" ry="3.38235" fill="#2C2C2E"/>
<ellipse cx="214.669" cy="105.629" rx="2.93243" ry="3.38235" fill="#2C2C2E"/>
<ellipse cx="126.696" cy="125.923" rx="2.93243" ry="3.38236" fill="#2C2C2E"/>
<ellipse cx="144.29" cy="125.923" rx="2.93243" ry="3.38236" fill="#2C2C2E"/>
<ellipse cx="161.885" cy="125.923" rx="2.93243" ry="3.38236" fill="#2C2C2E"/>
<ellipse cx="179.48" cy="125.923" rx="2.93245" ry="3.38236" fill="#2C2C2E"/>
<ellipse cx="197.074" cy="125.923" rx="2.93244" ry="3.38236" fill="#2C2C2E"/>
<ellipse cx="214.669" cy="125.923" rx="2.93243" ry="3.38236" fill="#2C2C2E"/>
<ellipse cx="126.696" cy="146.217" rx="2.93243" ry="3.38236" fill="#2C2C2E"/>
<ellipse cx="144.291" cy="146.217" rx="2.93243" ry="3.38236" fill="#2C2C2E"/>
<ellipse cx="161.885" cy="146.217" rx="2.93243" ry="3.38236" fill="#2C2C2E"/>
<ellipse cx="179.48" cy="146.217" rx="2.93245" ry="3.38236" fill="#2C2C2E"/>
<ellipse cx="197.074" cy="146.217" rx="2.93244" ry="3.38236" fill="#2C2C2E"/>
<ellipse cx="214.669" cy="146.217" rx="2.93243" ry="3.38236" fill="#2C2C2E"/>
<ellipse cx="126.696" cy="166.511" rx="2.93243" ry="3.38235" fill="#2C2C2E"/>
<ellipse cx="144.291" cy="166.511" rx="2.93243" ry="3.38235" fill="#2C2C2E"/>
<ellipse cx="161.885" cy="166.511" rx="2.93243" ry="3.38235" fill="#2C2C2E"/>
<ellipse cx="179.48" cy="166.511" rx="2.93245" ry="3.38235" fill="#2C2C2E"/>
<ellipse cx="197.074" cy="166.511" rx="2.93244" ry="3.38235" fill="#2C2C2E"/>
<ellipse cx="214.669" cy="166.511" rx="2.93243" ry="3.38235" fill="#2C2C2E"/>
<ellipse cx="126.696" cy="186.806" rx="2.93243" ry="3.38236" fill="#2C2C2E"/>
<ellipse cx="144.291" cy="186.806" rx="2.93243" ry="3.38236" fill="#2C2C2E"/>
<ellipse cx="161.885" cy="186.806" rx="2.93243" ry="3.38236" fill="#2C2C2E"/>
<ellipse cx="179.48" cy="186.806" rx="2.93245" ry="3.38236" fill="#2C2C2E"/>
<ellipse cx="197.074" cy="186.806" rx="2.93244" ry="3.38236" fill="#2C2C2E"/>
<ellipse cx="214.669" cy="186.806" rx="2.93243" ry="3.38236" fill="#2C2C2E"/>
<ellipse cx="126.696" cy="207.101" rx="2.93243" ry="3.38237" fill="#2C2C2E"/>
<ellipse cx="144.291" cy="207.101" rx="2.93243" ry="3.38237" fill="#2C2C2E"/>
<ellipse cx="161.885" cy="207.101" rx="2.93243" ry="3.38237" fill="#2C2C2E"/>
<ellipse cx="179.48" cy="207.101" rx="2.93245" ry="3.38237" fill="#2C2C2E"/>
<ellipse cx="197.074" cy="207.101" rx="2.93244" ry="3.38237" fill="#2C2C2E"/>
<ellipse cx="214.669" cy="207.101" rx="2.93243" ry="3.38237" fill="#2C2C2E"/>
<ellipse cx="126.696" cy="227.394" rx="2.93243" ry="3.38235" fill="#2C2C2E"/>
<ellipse cx="144.29" cy="227.394" rx="2.93243" ry="3.38235" fill="#2C2C2E"/>
<ellipse cx="161.885" cy="227.394" rx="2.93243" ry="3.38235" fill="#2C2C2E"/>
<ellipse cx="179.48" cy="227.394" rx="2.93245" ry="3.38235" fill="#2C2C2E"/>
<ellipse cx="197.074" cy="227.394" rx="2.93244" ry="3.38235" fill="#2C2C2E"/>
<ellipse cx="214.669" cy="227.394" rx="2.93243" ry="3.38235" fill="#2C2C2E"/>
</svg>
