<svg width="135" height="144" viewBox="0 0 135 144" fill="none" xmlns="http://www.w3.org/2000/svg">
<ellipse cx="1.82432" cy="2.11765" rx="1.82432" ry="2.11765" fill="#725C0A"/>
<ellipse cx="1.82432" cy="14.8237" rx="1.82432" ry="2.11765" fill="#725C0A"/>
<ellipse cx="1.82432" cy="27.5293" rx="1.82432" ry="2.11765" fill="#725C0A"/>
<ellipse cx="1.82432" cy="40.2353" rx="1.82432" ry="2.11765" fill="#725C0A"/>
<ellipse cx="1.82432" cy="52.9414" rx="1.82432" ry="2.11765" fill="#725C0A"/>
<ellipse cx="1.82432" cy="65.6469" rx="1.82432" ry="2.11765" fill="#725C0A"/>
<ellipse cx="1.82432" cy="78.3525" rx="1.82432" ry="2.11765" fill="#725C0A"/>
<ellipse cx="1.82432" cy="91.0586" rx="1.82432" ry="2.11765" fill="#725C0A"/>
<ellipse cx="1.82432" cy="103.764" rx="1.82432" ry="2.11765" fill="#725C0A"/>
<ellipse cx="1.82432" cy="116.471" rx="1.82432" ry="2.11765" fill="#725C0A"/>
<ellipse cx="1.82432" cy="129.177" rx="1.82432" ry="2.11765" fill="#725C0A"/>
<ellipse cx="1.82432" cy="141.882" rx="1.82432" ry="2.11765" fill="#725C0A"/>
<ellipse cx="12.7703" cy="2.11765" rx="1.82432" ry="2.11765" fill="#725C0A"/>
<ellipse cx="12.7704" cy="14.8237" rx="1.82432" ry="2.11765" fill="#725C0A"/>
<ellipse cx="12.7704" cy="27.5293" rx="1.82432" ry="2.11765" fill="#725C0A"/>
<ellipse cx="12.7703" cy="40.2353" rx="1.82432" ry="2.11765" fill="#725C0A"/>
<ellipse cx="12.7704" cy="52.9414" rx="1.82432" ry="2.11765" fill="#725C0A"/>
<ellipse cx="12.7704" cy="65.6469" rx="1.82432" ry="2.11765" fill="#725C0A"/>
<ellipse cx="12.7703" cy="78.3525" rx="1.82432" ry="2.11765" fill="#725C0A"/>
<ellipse cx="12.7704" cy="91.0586" rx="1.82432" ry="2.11765" fill="#725C0A"/>
<ellipse cx="12.7704" cy="103.764" rx="1.82432" ry="2.11765" fill="#725C0A"/>
<ellipse cx="12.7704" cy="116.471" rx="1.82432" ry="2.11765" fill="#725C0A"/>
<ellipse cx="12.7704" cy="129.177" rx="1.82432" ry="2.11765" fill="#725C0A"/>
<ellipse cx="12.7703" cy="141.882" rx="1.82432" ry="2.11765" fill="#725C0A"/>
<ellipse cx="23.7162" cy="2.11765" rx="1.82432" ry="2.11765" fill="#725C0A"/>
<ellipse cx="23.7162" cy="14.8237" rx="1.82432" ry="2.11765" fill="#725C0A"/>
<ellipse cx="23.7162" cy="27.5293" rx="1.82432" ry="2.11765" fill="#725C0A"/>
<ellipse cx="23.7162" cy="40.2353" rx="1.82432" ry="2.11765" fill="#725C0A"/>
<ellipse cx="23.7162" cy="52.9414" rx="1.82432" ry="2.11765" fill="#725C0A"/>
<ellipse cx="23.7162" cy="65.6469" rx="1.82432" ry="2.11765" fill="#725C0A"/>
<ellipse cx="23.7162" cy="78.3525" rx="1.82432" ry="2.11765" fill="#725C0A"/>
<ellipse cx="23.7162" cy="91.0586" rx="1.82432" ry="2.11765" fill="#725C0A"/>
<ellipse cx="23.7162" cy="103.764" rx="1.82432" ry="2.11765" fill="#725C0A"/>
<ellipse cx="23.7162" cy="116.471" rx="1.82432" ry="2.11765" fill="#725C0A"/>
<ellipse cx="23.7162" cy="129.177" rx="1.82432" ry="2.11765" fill="#725C0A"/>
<ellipse cx="23.7162" cy="141.882" rx="1.82432" ry="2.11765" fill="#725C0A"/>
<ellipse cx="34.6622" cy="2.11765" rx="1.82433" ry="2.11765" fill="#725C0A"/>
<ellipse cx="34.6622" cy="14.8237" rx="1.82433" ry="2.11765" fill="#725C0A"/>
<ellipse cx="34.6622" cy="27.5293" rx="1.82433" ry="2.11765" fill="#725C0A"/>
<ellipse cx="34.6622" cy="40.2353" rx="1.82433" ry="2.11765" fill="#725C0A"/>
<ellipse cx="34.6622" cy="52.9414" rx="1.82433" ry="2.11765" fill="#725C0A"/>
<ellipse cx="34.6622" cy="65.6469" rx="1.82433" ry="2.11765" fill="#725C0A"/>
<ellipse cx="34.6622" cy="78.3525" rx="1.82433" ry="2.11765" fill="#725C0A"/>
<ellipse cx="34.6622" cy="91.0586" rx="1.82433" ry="2.11765" fill="#725C0A"/>
<ellipse cx="34.6622" cy="103.764" rx="1.82433" ry="2.11765" fill="#725C0A"/>
<ellipse cx="34.6622" cy="116.471" rx="1.82433" ry="2.11765" fill="#725C0A"/>
<ellipse cx="34.6622" cy="129.177" rx="1.82433" ry="2.11765" fill="#725C0A"/>
<ellipse cx="34.6622" cy="141.882" rx="1.82433" ry="2.11765" fill="#725C0A"/>
<ellipse cx="45.6081" cy="2.11765" rx="1.82432" ry="2.11765" fill="#725C0A"/>
<ellipse cx="45.608" cy="14.8237" rx="1.82432" ry="2.11765" fill="#725C0A"/>
<ellipse cx="45.608" cy="27.5293" rx="1.82432" ry="2.11765" fill="#725C0A"/>
<ellipse cx="45.6081" cy="40.2353" rx="1.82432" ry="2.11765" fill="#725C0A"/>
<ellipse cx="45.608" cy="52.9414" rx="1.82432" ry="2.11765" fill="#725C0A"/>
<ellipse cx="45.608" cy="65.6469" rx="1.82432" ry="2.11765" fill="#725C0A"/>
<ellipse cx="45.608" cy="78.3525" rx="1.82432" ry="2.11765" fill="#725C0A"/>
<ellipse cx="45.608" cy="91.0586" rx="1.82432" ry="2.11765" fill="#725C0A"/>
<ellipse cx="45.608" cy="103.764" rx="1.82432" ry="2.11765" fill="#725C0A"/>
<ellipse cx="45.608" cy="116.471" rx="1.82432" ry="2.11765" fill="#725C0A"/>
<ellipse cx="45.608" cy="129.177" rx="1.82432" ry="2.11765" fill="#725C0A"/>
<ellipse cx="45.608" cy="141.882" rx="1.82432" ry="2.11765" fill="#725C0A"/>
<ellipse cx="56.5541" cy="2.11765" rx="1.82432" ry="2.11765" fill="#725C0A"/>
<ellipse cx="56.5541" cy="14.8237" rx="1.82432" ry="2.11765" fill="#725C0A"/>
<ellipse cx="56.5541" cy="27.5293" rx="1.82432" ry="2.11765" fill="#725C0A"/>
<ellipse cx="56.5541" cy="40.2353" rx="1.82432" ry="2.11765" fill="#725C0A"/>
<ellipse cx="56.5541" cy="52.9414" rx="1.82432" ry="2.11765" fill="#725C0A"/>
<ellipse cx="56.5541" cy="65.6469" rx="1.82432" ry="2.11765" fill="#725C0A"/>
<ellipse cx="56.554" cy="78.3525" rx="1.82432" ry="2.11765" fill="#725C0A"/>
<ellipse cx="56.5541" cy="91.0586" rx="1.82432" ry="2.11765" fill="#725C0A"/>
<ellipse cx="56.5541" cy="103.764" rx="1.82432" ry="2.11765" fill="#725C0A"/>
<ellipse cx="56.5541" cy="116.471" rx="1.82432" ry="2.11765" fill="#725C0A"/>
<ellipse cx="56.5541" cy="129.177" rx="1.82432" ry="2.11765" fill="#725C0A"/>
<ellipse cx="56.554" cy="141.882" rx="1.82432" ry="2.11765" fill="#725C0A"/>
<ellipse cx="67.4999" cy="2.11765" rx="1.82432" ry="2.11765" fill="#725C0A"/>
<ellipse cx="67.4999" cy="14.8237" rx="1.82432" ry="2.11765" fill="#725C0A"/>
<ellipse cx="67.4999" cy="27.5293" rx="1.82432" ry="2.11765" fill="#725C0A"/>
<ellipse cx="67.4998" cy="40.2353" rx="1.82433" ry="2.11765" fill="#725C0A"/>
<ellipse cx="67.4999" cy="52.9414" rx="1.82433" ry="2.11765" fill="#725C0A"/>
<ellipse cx="67.4999" cy="65.6469" rx="1.82433" ry="2.11765" fill="#725C0A"/>
<ellipse cx="67.4998" cy="78.3525" rx="1.82433" ry="2.11765" fill="#725C0A"/>
<ellipse cx="67.4999" cy="91.0586" rx="1.82433" ry="2.11765" fill="#725C0A"/>
<ellipse cx="67.4999" cy="103.764" rx="1.82433" ry="2.11765" fill="#725C0A"/>
<ellipse cx="67.4999" cy="116.471" rx="1.82433" ry="2.11765" fill="#725C0A"/>
<ellipse cx="67.4999" cy="129.177" rx="1.82433" ry="2.11765" fill="#725C0A"/>
<ellipse cx="67.4998" cy="141.882" rx="1.82433" ry="2.11765" fill="#725C0A"/>
<ellipse cx="78.4459" cy="2.11765" rx="1.82432" ry="2.11765" fill="#725C0A"/>
<ellipse cx="89.3919" cy="2.11765" rx="1.82432" ry="2.11765" fill="#725C0A"/>
<ellipse cx="100.338" cy="2.11765" rx="1.82433" ry="2.11765" fill="#725C0A"/>
<ellipse cx="111.284" cy="2.11765" rx="1.82432" ry="2.11765" fill="#725C0A"/>
<ellipse cx="122.23" cy="2.11765" rx="1.82433" ry="2.11765" fill="#725C0A"/>
<ellipse cx="133.176" cy="2.11765" rx="1.82433" ry="2.11765" fill="#725C0A"/>
<ellipse cx="78.4459" cy="14.8237" rx="1.82432" ry="2.11765" fill="#725C0A"/>
<ellipse cx="89.392" cy="14.8237" rx="1.82432" ry="2.11765" fill="#725C0A"/>
<ellipse cx="100.338" cy="14.8237" rx="1.82433" ry="2.11765" fill="#725C0A"/>
<ellipse cx="111.284" cy="14.8237" rx="1.82432" ry="2.11765" fill="#725C0A"/>
<ellipse cx="122.23" cy="14.8237" rx="1.82433" ry="2.11765" fill="#725C0A"/>
<ellipse cx="133.176" cy="14.8237" rx="1.82433" ry="2.11765" fill="#725C0A"/>
<ellipse cx="78.4459" cy="27.5293" rx="1.82432" ry="2.11765" fill="#725C0A"/>
<ellipse cx="89.392" cy="27.5293" rx="1.82432" ry="2.11765" fill="#725C0A"/>
<ellipse cx="100.338" cy="27.5293" rx="1.82433" ry="2.11765" fill="#725C0A"/>
<ellipse cx="111.284" cy="27.5293" rx="1.82432" ry="2.11765" fill="#725C0A"/>
<ellipse cx="122.23" cy="27.5293" rx="1.82433" ry="2.11765" fill="#725C0A"/>
<ellipse cx="133.176" cy="27.5293" rx="1.82433" ry="2.11765" fill="#725C0A"/>
<ellipse cx="78.4459" cy="40.2353" rx="1.82432" ry="2.11765" fill="#725C0A"/>
<ellipse cx="89.3919" cy="40.2353" rx="1.82432" ry="2.11765" fill="#725C0A"/>
<ellipse cx="100.338" cy="40.2353" rx="1.82433" ry="2.11765" fill="#725C0A"/>
<ellipse cx="111.284" cy="40.2353" rx="1.82432" ry="2.11765" fill="#725C0A"/>
<ellipse cx="122.23" cy="40.2353" rx="1.82433" ry="2.11765" fill="#725C0A"/>
<ellipse cx="133.176" cy="40.2353" rx="1.82433" ry="2.11765" fill="#725C0A"/>
<ellipse cx="78.4459" cy="52.9414" rx="1.82432" ry="2.11765" fill="#725C0A"/>
<ellipse cx="89.392" cy="52.9414" rx="1.82433" ry="2.11765" fill="#725C0A"/>
<ellipse cx="100.338" cy="52.9414" rx="1.82433" ry="2.11765" fill="#725C0A"/>
<ellipse cx="111.284" cy="52.9414" rx="1.82433" ry="2.11765" fill="#725C0A"/>
<ellipse cx="122.23" cy="52.9414" rx="1.82434" ry="2.11765" fill="#725C0A"/>
<ellipse cx="133.176" cy="52.9414" rx="1.82433" ry="2.11765" fill="#725C0A"/>
<ellipse cx="78.4459" cy="65.6469" rx="1.82432" ry="2.11765" fill="#725C0A"/>
<ellipse cx="89.392" cy="65.6469" rx="1.82433" ry="2.11765" fill="#725C0A"/>
<ellipse cx="100.338" cy="65.6469" rx="1.82433" ry="2.11765" fill="#725C0A"/>
<ellipse cx="111.284" cy="65.6469" rx="1.82433" ry="2.11765" fill="#725C0A"/>
<ellipse cx="122.23" cy="65.6469" rx="1.82434" ry="2.11765" fill="#725C0A"/>
<ellipse cx="133.176" cy="65.6469" rx="1.82433" ry="2.11765" fill="#725C0A"/>
<ellipse cx="78.4459" cy="78.3525" rx="1.82432" ry="2.11765" fill="#725C0A"/>
<ellipse cx="89.392" cy="78.3525" rx="1.82433" ry="2.11765" fill="#725C0A"/>
<ellipse cx="100.338" cy="78.3525" rx="1.82433" ry="2.11765" fill="#725C0A"/>
<ellipse cx="111.284" cy="78.3525" rx="1.82433" ry="2.11765" fill="#725C0A"/>
<ellipse cx="122.23" cy="78.3525" rx="1.82434" ry="2.11765" fill="#725C0A"/>
<ellipse cx="133.176" cy="78.3525" rx="1.82433" ry="2.11765" fill="#725C0A"/>
<ellipse cx="78.4459" cy="91.0586" rx="1.82432" ry="2.11765" fill="#725C0A"/>
<ellipse cx="89.392" cy="91.0586" rx="1.82433" ry="2.11765" fill="#725C0A"/>
<ellipse cx="100.338" cy="91.0586" rx="1.82433" ry="2.11765" fill="#725C0A"/>
<ellipse cx="111.284" cy="91.0586" rx="1.82433" ry="2.11765" fill="#725C0A"/>
<ellipse cx="122.23" cy="91.0586" rx="1.82434" ry="2.11765" fill="#725C0A"/>
<ellipse cx="133.176" cy="91.0586" rx="1.82433" ry="2.11765" fill="#725C0A"/>
<ellipse cx="78.4459" cy="103.764" rx="1.82432" ry="2.11765" fill="#725C0A"/>
<ellipse cx="89.392" cy="103.764" rx="1.82433" ry="2.11765" fill="#725C0A"/>
<ellipse cx="100.338" cy="103.764" rx="1.82433" ry="2.11765" fill="#725C0A"/>
<ellipse cx="111.284" cy="103.764" rx="1.82433" ry="2.11765" fill="#725C0A"/>
<ellipse cx="122.23" cy="103.764" rx="1.82434" ry="2.11765" fill="#725C0A"/>
<ellipse cx="133.176" cy="103.764" rx="1.82433" ry="2.11765" fill="#725C0A"/>
<ellipse cx="78.4459" cy="116.471" rx="1.82432" ry="2.11765" fill="#725C0A"/>
<ellipse cx="89.392" cy="116.471" rx="1.82433" ry="2.11765" fill="#725C0A"/>
<ellipse cx="100.338" cy="116.471" rx="1.82433" ry="2.11765" fill="#725C0A"/>
<ellipse cx="111.284" cy="116.471" rx="1.82433" ry="2.11765" fill="#725C0A"/>
<ellipse cx="122.23" cy="116.471" rx="1.82434" ry="2.11765" fill="#725C0A"/>
<ellipse cx="133.176" cy="116.471" rx="1.82433" ry="2.11765" fill="#725C0A"/>
<ellipse cx="78.4459" cy="129.177" rx="1.82432" ry="2.11765" fill="#725C0A"/>
<ellipse cx="89.392" cy="129.177" rx="1.82433" ry="2.11765" fill="#725C0A"/>
<ellipse cx="100.338" cy="129.177" rx="1.82433" ry="2.11765" fill="#725C0A"/>
<ellipse cx="111.284" cy="129.177" rx="1.82433" ry="2.11765" fill="#725C0A"/>
<ellipse cx="122.23" cy="129.177" rx="1.82434" ry="2.11765" fill="#725C0A"/>
<ellipse cx="133.176" cy="129.177" rx="1.82433" ry="2.11765" fill="#725C0A"/>
<ellipse cx="78.4459" cy="141.882" rx="1.82432" ry="2.11765" fill="#725C0A"/>
<ellipse cx="89.392" cy="141.882" rx="1.82433" ry="2.11765" fill="#725C0A"/>
<ellipse cx="100.338" cy="141.882" rx="1.82433" ry="2.11765" fill="#725C0A"/>
<ellipse cx="111.284" cy="141.882" rx="1.82433" ry="2.11765" fill="#725C0A"/>
<ellipse cx="122.23" cy="141.882" rx="1.82434" ry="2.11765" fill="#725C0A"/>
<ellipse cx="133.176" cy="141.882" rx="1.82433" ry="2.11765" fill="#725C0A"/>
</svg>
