<svg width="170" height="170" viewBox="0 0 170 170" fill="none" xmlns="http://www.w3.org/2000/svg">
<g clip-path="url(#clip0_606_26)">
<path d="M169.969 162.307L157.678 52.4057C157.396 49.8849 155.265 47.9788 152.729 47.9788H17.2556C14.7189 47.9788 12.5873 49.8852 12.306 52.4063L0.0308842 162.308C-0.126498 163.717 0.323735 165.125 1.26869 166.182C2.21365 167.238 3.56335 167.842 4.98079 167.842H165.02C166.437 167.842 167.788 167.238 168.732 166.182C169.677 165.125 170.127 163.716 169.969 162.307Z" fill="#E13A3A"/>
<path d="M169.969 162.307L157.678 52.4055C157.396 49.8847 155.265 47.9785 152.729 47.9785H85V167.842H165.02C166.437 167.842 167.787 167.237 168.732 166.181C169.677 165.125 170.127 163.716 169.969 162.307Z" fill="#F74D4D"/>
<path d="M52.9593 84.0039C58.4606 84.0039 62.9202 79.5445 62.9202 74.0432C62.9202 68.5419 58.4606 64.0823 52.9593 64.0823C47.4581 64.0823 42.9984 68.5419 42.9984 74.0432C42.9984 79.5445 47.4581 84.0039 52.9593 84.0039Z" fill="#2E2E2E"/>
<path d="M117.041 84.0039C122.542 84.0039 127.002 79.5445 127.002 74.043C127.002 68.5417 122.542 64.082 117.041 64.082C111.539 64.082 107.08 68.5417 107.08 74.043C107.08 79.5445 111.539 84.0039 117.041 84.0039Z" fill="#1A1A1A"/>
<path d="M117.041 77.3638C114.291 77.3638 112.061 75.1336 112.061 72.3831V39.18C112.061 24.2588 99.9214 12.1194 85 12.1194C70.0792 12.1194 57.9398 24.2588 57.9398 39.18V72.3831C57.9398 75.1336 55.7099 77.3638 52.9593 77.3638C50.2088 77.3638 47.9789 75.1336 47.9789 72.3831V39.18C47.9789 18.7663 64.5867 2.15845 85 2.15845C105.414 2.15845 122.022 18.7663 122.022 39.18V72.3831C122.022 75.1336 119.792 77.3638 117.041 77.3638Z" fill="#FFF4F4"/>
<path d="M85 2.15845V12.1194C99.9214 12.1194 112.061 24.2588 112.061 39.18V72.3831C112.061 75.1336 114.29 77.3638 117.041 77.3638C119.791 77.3638 122.021 75.1336 122.021 72.3831V39.18C122.021 18.7663 105.414 2.15845 85 2.15845Z" fill="#F6EFEA"/>
<path d="M39.3163 94.0254H46.5491C48.3006 94.0254 49.9593 94.2209 51.5254 94.6127C53.1121 95.0044 54.4927 95.6427 55.6673 96.529C56.8418 97.3945 57.7691 98.5281 58.4491 99.929C59.1497 101.33 59.5 103.03 59.5 105.029C59.5 106.801 59.16 108.367 58.48 109.727C57.8206 111.066 56.9242 112.2 55.7909 113.127C54.6575 114.034 53.3491 114.724 51.8654 115.198C50.3818 115.672 48.8261 115.909 47.1982 115.909H39.3163V94.0254ZM44.1382 111.458H46.6418C47.7545 111.458 48.7848 111.345 49.7327 111.118C50.7012 110.892 51.5357 110.521 52.2363 110.005C52.937 109.47 53.483 108.779 53.8745 107.934C54.2866 107.069 54.4927 106.018 54.4927 104.782C54.4927 103.71 54.2866 102.783 53.8745 102C53.483 101.196 52.9473 100.537 52.2673 100.022C51.5873 99.5063 50.7836 99.1254 49.8563 98.8781C48.9497 98.61 47.9915 98.4763 46.9818 98.4763H44.1382V111.458ZM81.2229 107.471C81.2229 108.769 81.0266 109.964 80.6356 111.056C80.2438 112.148 79.6566 113.096 78.8738 113.9C78.1111 114.704 77.1529 115.332 75.9989 115.785C74.8449 116.239 73.5159 116.465 72.0117 116.465C70.4868 116.465 69.1474 116.239 67.9935 115.785C66.8395 115.332 65.871 114.704 65.088 113.9C64.3256 113.096 63.7486 112.148 63.3571 111.056C62.9656 109.964 62.7698 108.769 62.7698 107.471V94.0254H67.5917V107.285C67.5917 107.965 67.6947 108.594 67.9008 109.171C68.1274 109.748 68.4365 110.253 68.828 110.685C69.2195 111.097 69.6831 111.427 70.2189 111.674C70.7753 111.901 71.3728 112.014 72.0117 112.014C72.6504 112.014 73.2377 111.901 73.7735 111.674C74.3092 111.427 74.7729 111.097 75.1644 110.685C75.5559 110.253 75.8547 109.748 76.0608 109.171C76.2874 108.594 76.4008 107.965 76.4008 107.285V94.0254H81.2229V107.471ZM85.68 94.0254H92.9745L98.0127 108.305H98.0745L103.144 94.0254H110.407V115.909H105.585V99.1254H105.524L99.7745 115.909H96.0963L90.5636 99.1254H90.5018V115.909H85.68V94.0254ZM114.868 94.0254H123.028C123.976 94.0254 124.924 94.0973 125.872 94.2418C126.841 94.3654 127.706 94.6335 128.468 95.0454C129.231 95.4372 129.849 95.9935 130.323 96.7145C130.797 97.4354 131.034 98.3936 131.034 99.589C131.034 100.825 130.684 101.855 129.983 102.68C129.303 103.484 128.396 104.061 127.263 104.411V104.473C127.984 104.575 128.634 104.782 129.21 105.091C129.808 105.379 130.313 105.761 130.725 106.234C131.157 106.688 131.487 107.224 131.714 107.842C131.941 108.46 132.054 109.119 132.054 109.82C132.054 110.974 131.806 111.943 131.312 112.725C130.817 113.488 130.179 114.106 129.395 114.58C128.613 115.054 127.726 115.394 126.737 115.6C125.769 115.806 124.801 115.909 123.832 115.909H114.868V94.0254ZM119.69 102.773H123.183C123.554 102.773 123.915 102.732 124.265 102.649C124.635 102.566 124.965 102.433 125.254 102.247C125.543 102.062 125.769 101.814 125.934 101.505C126.119 101.196 126.212 100.825 126.212 100.393C126.212 99.9391 126.109 99.5682 125.903 99.2799C125.717 98.9708 125.47 98.7336 125.161 98.569C124.852 98.4044 124.502 98.2908 124.11 98.229C123.719 98.1463 123.337 98.1054 122.966 98.1054H119.69V102.773ZM119.69 111.829H124.017C124.388 111.829 124.759 111.788 125.13 111.705C125.522 111.623 125.872 111.479 126.181 111.273C126.49 111.066 126.737 110.799 126.923 110.469C127.129 110.139 127.232 109.737 127.232 109.264C127.232 108.748 127.098 108.336 126.83 108.027C126.583 107.697 126.264 107.45 125.872 107.285C125.481 107.121 125.058 107.007 124.605 106.945C124.152 106.884 123.729 106.853 123.337 106.853H119.69V111.829Z" fill="white"/>
<path d="M32.8563 124.935H36.72L44.1381 142.089H44.2L51.6799 124.935H55.4509V146.818H52.8545V128.458H52.7927L44.9418 146.818H43.3654L35.5145 128.458H35.4527V146.818H32.8563V124.935ZM60.8979 124.935H74.6524V127.345H63.4942V134.207H73.9106V136.618H63.4942V144.407H75.2088V146.818H60.8979V124.935ZM79.2199 124.935H84.8145C85.8654 124.935 86.9062 124.996 87.9363 125.12C88.9872 125.244 89.9245 125.512 90.749 125.924C91.5735 126.335 92.2427 126.944 92.7581 127.747C93.2735 128.53 93.5308 129.602 93.5308 130.962C93.5308 132.569 93.0463 133.867 92.0781 134.856C91.1099 135.845 89.77 136.474 88.0599 136.742L94.2727 146.818H91.089L85.1545 136.989H81.8163V146.818H79.2199V124.935ZM81.8163 134.578H84.1345C84.8554 134.578 85.5973 134.557 86.3599 134.516C87.1427 134.475 87.8536 134.341 88.4927 134.115C89.1518 133.888 89.6881 133.537 90.0999 133.064C90.5327 132.569 90.749 131.868 90.749 130.962C90.749 130.179 90.5945 129.55 90.2854 129.076C89.9763 128.603 89.5644 128.242 89.049 127.995C88.5545 127.726 87.9881 127.552 87.349 127.469C86.7308 127.386 86.1026 127.345 85.4636 127.345H81.8163V134.578ZM113.446 129.447C112.787 128.561 111.973 127.902 111.005 127.469C110.036 127.015 109.026 126.789 107.975 126.789C106.76 126.789 105.636 127.036 104.606 127.531C103.596 128.025 102.721 128.695 101.979 129.54C101.237 130.364 100.66 131.333 100.248 132.445C99.8363 133.537 99.63 134.681 99.63 135.876C99.63 137.154 99.8363 138.349 100.248 139.462C100.66 140.554 101.227 141.512 101.948 142.336C102.69 143.14 103.565 143.779 104.575 144.253C105.605 144.726 106.739 144.964 107.975 144.964C109.315 144.964 110.51 144.706 111.561 144.191C112.612 143.655 113.529 142.893 114.312 141.904L116.259 143.542C115.27 144.861 114.075 145.829 112.674 146.447C111.293 147.065 109.727 147.375 107.975 147.375C106.409 147.375 104.946 147.086 103.586 146.509C102.226 145.932 101.042 145.139 100.032 144.129C99.0427 143.099 98.2599 141.883 97.6827 140.482C97.1263 139.081 96.8482 137.545 96.8482 135.876C96.8482 134.269 97.1163 132.765 97.6518 131.364C98.2082 129.963 98.9809 128.746 99.97 127.716C100.959 126.686 102.134 125.872 103.494 125.275C104.854 124.677 106.347 124.378 107.975 124.378C109.459 124.378 110.881 124.646 112.241 125.182C113.622 125.717 114.775 126.594 115.703 127.809L113.446 129.447ZM119.879 124.935H122.475V134.207H134.159V124.935H136.755V146.818H134.159V136.618H122.475V146.818H119.879V124.935Z" fill="white"/>
</g>
<defs>
<clipPath id="clip0_606_26">
<rect width="170" height="170" fill="white"/>
</clipPath>
</defs>
</svg>
