<svg width="18" height="18" viewBox="0 0 18 18" fill="none" xmlns="http://www.w3.org/2000/svg">
<path d="M17.5645 3.68874C17.2852 2.9669 16.8825 2.31277 16.379 1.76298C15.875 1.21154 15.2808 0.773325 14.6288 0.472155C13.9526 0.15862 13.2274 -0.0018648 12.4952 1.63478e-05C11.468 1.63478e-05 10.4658 0.314 9.59485 0.90708C9.38649 1.04895 9.18855 1.20478 9.00103 1.37457C8.81351 1.20478 8.61557 1.04895 8.40721 0.90708C7.53628 0.314 6.53408 1.63478e-05 5.50688 1.63478e-05C4.76721 1.63478e-05 4.05046 0.158171 3.3733 0.472155C2.71906 0.774509 2.12941 1.20943 1.6231 1.76298C1.11887 2.31215 0.716078 2.96643 0.43755 3.68874C0.147934 4.43998 0 5.23773 0 6.05874C0 6.83323 0.141683 7.64028 0.422965 8.46129C0.658409 9.14741 0.995947 9.8591 1.42725 10.5778C2.11066 11.7151 3.05035 12.9013 4.21715 14.1037C6.1507 16.0969 8.06551 17.4738 8.14677 17.5296L8.64057 17.8831C8.85935 18.039 9.14063 18.039 9.35941 17.8831L9.85321 17.5296C9.93447 17.4715 11.8472 16.0969 13.7828 14.1037C14.9496 12.9013 15.8893 11.7151 16.5727 10.5778C17.004 9.8591 17.3437 9.14741 17.577 8.46129C17.8583 7.64028 18 6.83323 18 6.05874C18.0021 5.23773 17.8541 4.43998 17.5645 3.68874V3.68874Z" fill="url(#paint0_linear_775_3)"/>
<defs>
<linearGradient id="paint0_linear_775_3" x1="1.10323" y1="5.57143" x2="16.1783" y2="15.1479" gradientUnits="userSpaceOnUse">
<stop stop-color="#ED213A"/>
<stop offset="1" stop-color="#93291E"/>
</linearGradient>
</defs>
</svg>
