<svg width="18" height="18" viewBox="0 0 18 18" fill="none" xmlns="http://www.w3.org/2000/svg">
<mask id="path-1-inside-1_776_8" fill="white">
<path d="M9.00016 3.29765L8.19351 2.41325C6.30007 0.337257 2.82822 1.05365 1.57493 3.66365C0.986537 4.89124 0.853783 6.66364 1.92819 8.92563C2.96322 11.1036 5.11654 13.7124 9.00016 16.554C12.8838 13.7124 15.036 11.1036 16.0721 8.92563C17.1465 6.66244 17.0149 4.89124 16.4254 3.66365C15.1721 1.05365 11.7002 0.336057 9.80681 2.41205L9.00016 3.29765ZM9.00016 18C-8.24999 5.84164 3.68887 -3.64793 8.80215 1.37165C8.86965 1.43765 8.93603 1.50605 9.00016 1.57685C9.06363 1.50612 9.12968 1.43807 9.19816 1.37285C14.3103 -3.65033 26.2503 5.84044 9.00016 18Z"/>
</mask>
<path d="M9.00016 3.29765L7.52248 4.64542L9.00116 6.26661L10.4787 4.64442L9.00016 3.29765ZM8.19351 2.41325L6.71581 3.761L6.71583 3.76102L8.19351 2.41325ZM1.57493 3.66365L-0.227984 2.79791L-0.228605 2.7992L1.57493 3.66365ZM1.92819 8.92563L0.121623 9.78372L0.121791 9.78407L1.92819 8.92563ZM9.00016 16.554L7.81916 18.1681L9.00016 19.0322L10.1812 18.1681L9.00016 16.554ZM16.0721 8.92563L17.8782 9.78483L17.8789 9.78335L16.0721 8.92563ZM16.4254 3.66365L14.6225 4.52938L14.6225 4.52943L16.4254 3.66365ZM9.80681 2.41205L8.32911 1.0643L8.32822 1.06528L9.80681 2.41205ZM9.00016 18L7.84794 19.6347L9.00021 20.4469L10.1524 19.6347L9.00016 18ZM8.80215 1.37165L7.40107 2.79889L7.40394 2.80169L8.80215 1.37165ZM9.00016 1.57685L7.51781 2.91949L9.00706 4.5637L10.4887 2.91262L9.00016 1.57685ZM9.19816 1.37285L10.5774 2.82118L10.5887 2.81039L10.5999 2.79943L9.19816 1.37285ZM10.4778 1.94988L9.67118 1.06548L6.71583 3.76102L7.52248 4.64542L10.4778 1.94988ZM9.6712 1.0655C6.67508 -2.2195 1.54127 -0.886581 -0.227984 2.79791L3.37784 4.52938C4.11517 2.99389 5.92507 2.89401 6.71581 3.761L9.6712 1.0655ZM-0.228605 2.7992C-1.11868 4.65621 -1.16835 7.06789 0.121623 9.78372L3.73476 8.06754C2.87591 6.25939 3.09175 5.12627 3.37846 4.52809L-0.228605 2.7992ZM0.121791 9.78407C1.34487 12.3578 3.76873 15.2044 7.81916 18.1681L10.1812 14.9399C6.46434 12.2204 4.58158 9.84948 3.73459 8.06719L0.121791 9.78407ZM10.1812 18.1681C14.232 15.2041 16.6542 12.3576 17.8782 9.78483L14.2661 8.06643C13.4177 9.84963 11.5355 12.2207 7.81916 14.9399L10.1812 18.1681ZM17.8789 9.78335C19.168 7.06777 19.1209 4.65658 18.2283 2.79786L14.6225 4.52943C14.9089 5.1259 15.125 6.25711 14.2654 8.06791L17.8789 9.78335ZM18.2283 2.79791C16.4595 -0.885566 11.3259 -2.22148 8.32911 1.0643L11.2845 3.7598C12.0745 2.89359 13.8847 2.99288 14.6225 4.52938L18.2283 2.79791ZM8.32822 1.06528L7.52157 1.95088L10.4787 4.64442L11.2854 3.75882L8.32822 1.06528ZM10.1524 16.3653C1.72976 10.4288 1.49622 5.93898 2.33903 4.06412C3.32874 1.86247 5.99421 1.4178 7.40107 2.79888L10.2032 -0.0555757C6.4968 -3.69408 0.636205 -1.90375 -1.3093 2.42408C-3.4017 7.07869 -0.979598 13.4129 7.84794 19.6347L10.1524 16.3653ZM7.40394 2.80169C7.44636 2.84317 7.48422 2.8824 7.51781 2.91949L10.4825 0.234221C10.3878 0.129705 10.2929 0.0321349 10.2004 -0.0583831L7.40394 2.80169ZM10.4887 2.91262C10.5174 2.88062 10.547 2.85013 10.5774 2.82118L7.8189 -0.0754729C7.71235 0.0260011 7.60986 0.131618 7.51162 0.241089L10.4887 2.91262ZM10.5999 2.79943C12.0063 1.4175 14.6711 1.86144 15.6609 4.06298C16.5038 5.93793 16.2704 10.4283 7.84787 16.3653L10.1524 19.6347C18.98 13.4122 21.4017 7.07734 19.3092 2.42281C17.3634 -1.90512 11.5022 -3.69497 7.79642 -0.0537193L10.5999 2.79943Z" fill="url(#paint0_linear_776_8)" mask="url(#path-1-inside-1_776_8)"/>
<defs>
<linearGradient id="paint0_linear_776_8" x1="1.10323" y1="5.57143" x2="16.1783" y2="15.1479" gradientUnits="userSpaceOnUse">
<stop stop-color="#ED213A"/>
<stop offset="1" stop-color="#93291E"/>
</linearGradient>
</defs>
</svg>
